<svg xmlns="http://www.w3.org/2000/svg" xmlns:xlink="http://www.w3.org/1999/xlink" width="80.256" height="24.153" viewBox="0 0 80.256 24.153"><defs>
    <linearGradient id="a" x1="0.5" x2="0.5" y2="1" gradientUnits="objectBoundingBox"><stop offset="0" stop-color="#e1b303"/><stop offset="1" stop-color="#fff"/></linearGradient></defs><g transform="translate(0.477 0.877)">
    <path style="opacity:0.2;fill:url(#a);" d="M3694.033,3917.736l-1.784,1.069-1.823-1.069-2.7,3.444-1.743-2.375-1.585,2.85-3.171-3.919-2.457,6.294-2.536-2.85-2.22-3.444-1.585,1.069H3668l-3.8,2.85-2.536-.475-1.9,2.85-2.219-2.85-1.9,2.85-1.585-2.85-1.11,1.662-1.427-4.038-1.9-2.137-.951,2.137-1.585-1.069-.634,1.069-1.427,2.375-1.268-2.375-.793,2.85-1.268-2.85-2.536-2.137-.634,2.137-1.585,2.375-2.378-2.375-1.268,2.85-2.378-2.85-1.585,2.375-2.7,4.275-2.695,1.9-.793-1.9-1.744,1.9-1.427-3.325-1.11-5.225-.792,2.375-.951,1.662-.951-1.662-.951-3.444-.707,2.374v19.834h79.533Z" transform="translate(-3614.5 -3916.667)"/>
    <path style="fill:none;stroke:#e1b303;opacity:0.46;" d="M3694.033,3917.676l-1.784,1.009-1.823-1.009-2.7,3.251-1.743-2.242-1.585,2.691-3.171-3.7-2.457,5.942-2.536-2.691-2.22-3.251-1.585,1.009H3668l-3.8,2.691-2.536-.449-1.9,2.691-2.219-2.691-1.9,2.691-1.585-2.691-1.11,1.57-1.427-3.812-1.9-2.018-.951,2.018-1.585-1.009-.634,1.009-1.427,2.242-1.268-2.242-.793,2.691-1.268-2.691-2.536-2.018-.634,2.018-1.585,2.242-2.378-2.242-1.268,2.691-2.378-2.691-1.585,2.242-2.7,4.036-2.695,1.794-.793-1.794-1.744,1.794-1.427-3.139-1.11-4.933-.792,2.242-.951,1.57-.951-1.57-.951-3.251-.707,2.24" transform="translate(-3614.5 -3916.667)"/></g></svg>