<svg xmlns="http://www.w3.org/2000/svg" width="68" height="59" viewBox="0 0 68 57">

    <g transform="translate(-200 -753)">
        <g style="fill:none; stroke:#707070;opacity:0;" transform="translate(200 753)">
            <rect style="stroke:none;" width="68" height="58"/>
            <rect style="fill:none;" x="0.5" y="0.5" width="67" height="58"/>
        </g>
        <g transform="translate(5.186 3)">
            <circle style="fill:#2e1963;" cx="18.5" cy="18.5" r="25.5" transform="translate(210.814 756.55)"/>
            <g transform="translate(219.803 785.361) rotate(-90)">
                <path style="fill:none;" d="M0,0H19.208V19.208H0Z"/>
                <path style="fill:#fff;" d="M7.615,4.524a.84.84,0,0,1-1.188,0L4.771,2.869v9.185a.84.84,0,0,1-1.681,0V2.869L1.435,4.524A.84.84,0,0,1,.246,3.336L3.337.246h0a.844.844,0,0,1,.128-.1c.021-.014.044-.024.066-.036a.812.812,0,0,1,.08-.042A.782.782,0,0,1,3.7.037a.711.711,0,0,1,.07-.021.844.844,0,0,1,.329,0c.025,0,.047.014.071.021a.828.828,0,0,1,.086.027.792.792,0,0,1,.08.042A.65.65,0,0,1,4.4.142a.856.856,0,0,1,.126.1h0L7.615,3.336A.841.841,0,0,1,7.615,4.524Zm7.5,6.316a.84.84,0,0,0-1.188,0L12.276,12.5V3.312a.84.84,0,0,0-1.681,0V12.5L8.939,10.84a.84.84,0,0,0-1.188,1.188l3.091,3.09a.852.852,0,0,0,.128.1c.021.014.043.023.065.035a.838.838,0,0,0,.08.042.809.809,0,0,0,.085.026c.024.007.047.016.072.022a.854.854,0,0,0,.16.016h.006a.851.851,0,0,0,.16-.016c.025,0,.048-.014.071-.021a.5.5,0,0,0,.165-.069c.022-.012.045-.022.066-.035a.853.853,0,0,0,.128-.1l3.09-3.09a.84.84,0,0,0,0-1.188Z" transform="translate(1.92 1.921)"/>
            </g>
        </g>
    </g>
</svg>