<svg xmlns="http://www.w3.org/2000/svg" width="21.578" height="21.269" viewBox="0 0 21.578 21.269">

    <path style="fill:#c4c4c4;" d="M11.4,19.859V10.41a2.293,2.293,0,0,1,2.215-2.365H23.833V6.865A2.286,2.286,0,0,0,21.639,4.5H5.657A2.314,2.314,0,0,0,3.375,6.826V23.443a2.314,2.314,0,0,0,2.282,2.326H21.634A2.283,2.283,0,0,0,23.828,23.4v-1.18H13.609A2.292,2.292,0,0,1,11.4,19.859Z" transform="translate(-3.375 -4.5)"/>
    <path style="fill:#c4c4c4;" d="M17.227,12.839v7.754a.862.862,0,0,0,.83.886h9.7a.862.862,0,0,0,.83-.886V12.839a.862.862,0,0,0-.83-.886h-9.7A.862.862,0,0,0,17.227,12.839Zm4,5.644a1.777,1.777,0,1,1,1.551-1.656A1.72,1.72,0,0,1,21.226,18.483Z" transform="translate(-7.008 -6.082)"/>
</svg>